PathFileType	4	(X/Y/Z)	C:\Users\Graham\Documents\MATLAB\MOtoNMS_v2_2\MyData\ElaboratedData\S2\17-05-16\staticElaborations\Static1\Static1\\Static1.trc
DataRate	CameraRate	NumFrames	NumMarkers	Units	OrigDataRate	DataStartFrame
100	100	9	38	mm	100	2
Frame#	Time	V_Sacral			R_ASIS			L_ASIS			R_Knee_Lat			R_Knee_Med			R_Thigh_Upper			R_Thigh_Front			R_Thigh_Rear			L_Knee_Lat			L_Knee_Med			L_Thigh_Upper			L_Thigh_Front			L_Thigh_Rear			R_Ankle_Lat			R_Ankle_Med			R_Shank_Upper			R_Shank_Front			R_Shank_Rear			L_Ankle_Lat			L_Ankle_Med			L_Shank_Upper			L_Shank_Front			L_Shank_Rear			R_Heel			R_MTP1			R_MTP5			L_Heel			L_MTP1			L_MTP5			Clavicle			R_Acromium			L_Acromium			LAJC			RAJC			LHJC			RHJC			LKJC			RKJC		
		X1	Y1	Z1	X2	Y2	Z2	X3	Y3	Z3	X4	Y4	Z4	X5	Y5	Z5	X6	Y6	Z6	X7	Y7	Z7	X8	Y8	Z8	X9	Y9	Z9	X10	Y10	Z10	X11	Y11	Z11	X12	Y12	Z12	X13	Y13	Z13	X14	Y14	Z14	X15	Y15	Z15	X16	Y16	Z16	X17	Y17	Z17	X18	Y18	Z18	X19	Y19	Z19	X20	Y20	Z20	X21	Y21	Z21	X22	Y22	Z22	X23	Y23	Z23	X24	Y24	Z24	X25	Y25	Z25	X26	Y26	Z26	X27	Y27	Z27	X28	Y28	Z28	X29	Y29	Z29	X30	Y30	Z30	X31	Y31	Z31	X32	Y32	Z32	X33	Y33	Z33	X34	Y34	Z34	X35	Y35	Z35	X36	Y36	Z36	X37	Y37	Z37	X38	Y38	Z38	

31	0.300000	162.669934	1006.041028	28.343043	368.436484	1017.018135	149.295165	358.680113	1026.236452	-86.371122	235.900962	519.134499	217.208853	242.584971	513.561865	108.615585	382.569839	740.291903	168.443859	335.193023	636.471975	138.725783	320.658515	648.395560	200.165106	252.163428	535.230070	-147.241858	244.336124	509.691446	-36.827365	358.834957	781.601417	-139.522453	352.765101	666.212925	-112.529937	300.551557	670.912962	-160.076390	187.913808	106.879453	244.143492	220.047473	107.841718	159.041656	266.152825	374.563985	220.020985	255.834507	258.957465	187.281755	214.264847	262.776005	253.925065	212.892754	90.986541	-182.777445	252.649846	113.345192	-102.087477	276.489513	357.217515	-163.603105	271.517006	245.788970	-129.532464	225.031356	250.761710	-190.808773	123.300502	63.062589	194.021950	354.944044	67.664704	200.301429	333.790906	51.259448	282.552266	147.200154	63.853388	-129.752487	388.644496	64.325704	-158.050311	354.554118	50.206483	-235.549952	333.383090	1392.110736	32.207658	234.554358	1440.913409	225.721061	270.531219	1443.000825	-171.178855	232.771300	102.165867	-142.432461	203.980640	107.360585	201.592574	308.368769	938.926349	-54.822097	315.411422	932.272091	115.294029	248.249776	522.460758	-92.034612	239.242966	516.348182	162.912219	
32	0.310000	162.718193	1006.041259	28.337759	368.498421	1017.011367	149.279657	358.721263	1026.227623	-86.388181	235.915436	519.136587	217.192916	242.601307	513.572112	108.629339	382.606022	740.277476	168.428751	335.212042	636.462435	138.710083	320.681337	648.386105	200.149893	252.166800	535.228943	-147.244835	244.335437	509.692645	-36.829116	358.853110	781.592464	-139.535052	352.781067	666.207234	-112.536258	300.566209	670.906825	-160.080406	187.917398	106.882018	244.141117	220.048750	107.840578	159.038632	266.155223	374.566068	220.011249	255.837217	258.958314	187.274103	214.271234	262.785412	253.920360	212.890677	90.986967	-182.778743	252.649822	113.345196	-102.085935	276.489251	357.218347	-163.604250	271.517784	245.791079	-129.534042	225.031496	250.761978	-190.809023	123.300270	63.063467	194.018249	354.946218	67.664096	200.299537	333.790687	51.259071	282.552118	147.200424	63.853410	-129.751019	388.629219	64.301771	-158.064999	354.552833	50.205298	-235.550073	333.432069	1392.103424	32.192963	234.602226	1440.896798	225.710079	270.569313	1442.991308	-171.195359	232.770249	102.166081	-142.432339	203.983074	107.361298	201.589874	308.408760	938.919093	-54.833332	315.466413	932.266328	115.283770	248.251119	522.460794	-92.036976	239.258371	516.354350	162.911127	
33	0.320000	162.761640	1006.040970	28.334363	368.556704	1017.004515	149.265460	358.758205	1026.219374	-86.404664	235.928721	519.138224	217.178156	242.583721	513.549759	108.624553	382.638511	740.265285	168.414680	335.228336	636.453514	138.694769	320.703393	648.378250	200.134985	252.168463	535.228014	-147.248446	244.333950	509.693583	-36.831212	358.866015	781.583717	-139.548808	352.792948	666.201779	-112.544264	300.576451	670.900873	-160.084875	187.920657	106.884335	244.138772	220.049976	107.838813	159.036288	266.156886	374.567796	220.002537	255.839094	258.958388	187.266313	214.276145	262.793176	253.914277	212.888656	90.987010	-182.780281	252.649235	113.345134	-102.084954	276.487827	357.218680	-163.605812	271.517697	245.792820	-129.535749	225.030551	250.761677	-190.809437	123.300751	63.063470	194.014991	354.948931	67.664104	200.297733	333.790335	51.259005	282.551767	147.200459	63.853283	-129.750081	388.613081	64.276605	-158.080271	354.551905	50.204393	-235.550070	333.479475	1392.096798	32.178192	234.649435	1440.880046	225.698236	270.604982	1442.982799	-171.212138	232.768946	102.166072	-142.432618	203.985316	107.361574	201.587530	308.444709	938.911899	-54.844001	315.517758	932.260150	115.274559	248.251206	522.460799	-92.039829	239.256221	516.343991	162.901355	
34	0.330000	162.799991	1006.040227	28.332726	368.610825	1016.997909	149.251804	358.790570	1026.212066	-86.420956	235.941982	519.139357	217.164610	242.537227	513.498479	108.602039	382.667833	740.255709	168.400974	335.243051	636.445743	138.679757	320.725693	648.372381	200.120392	252.169658	535.227341	-147.252748	244.333387	509.694241	-36.834128	358.874585	781.575938	-139.564348	352.801810	666.196953	-112.555009	300.582975	670.895607	-160.090388	187.923728	106.886450	244.136479	220.051310	107.836638	159.034669	266.158917	374.568938	219.994816	255.840686	258.957544	187.258533	214.280089	262.799051	253.907104	212.886937	90.986669	-182.781806	252.648368	113.345050	-102.084570	276.486269	357.218365	-163.607902	271.517303	245.794037	-129.537563	225.029077	250.760875	-190.810109	123.301942	63.062625	194.012461	354.951811	67.664618	200.296244	333.790001	51.259290	282.551132	147.200329	63.853050	-129.749650	388.598990	64.254552	-158.093585	354.551448	50.203799	-235.549918	333.524986	1392.091114	32.162961	234.696120	1440.863852	225.685444	270.637647	1442.975651	-171.229223	232.767653	102.165860	-142.433188	203.987519	107.361544	201.585574	308.476364	938.905176	-54.854603	315.565109	932.253942	115.265643	248.251522	522.460791	-92.043438	239.239605	516.318918	162.883324	
35	0.340000	162.833094	1006.039150	28.332692	368.660243	1016.991870	149.238086	358.818014	1026.205894	-86.437301	235.956140	519.139972	217.152295	242.469095	513.424345	108.564371	382.694511	740.248897	168.387187	335.257287	636.439553	138.665092	320.748842	648.368660	200.106229	252.171626	535.226944	-147.257638	244.335223	509.694640	-36.838171	358.879898	781.569789	-139.581909	352.808861	666.193124	-112.569032	300.586744	670.891432	-160.097207	187.926712	106.888345	244.134274	220.052876	107.834312	159.033734	266.162240	374.569290	219.988028	255.842433	258.955705	187.250984	214.283511	262.802917	253.899213	212.885745	90.985946	-182.783025	252.647544	113.345006	-102.084723	276.485571	357.217288	-163.610504	271.517149	245.794610	-129.539413	225.027676	250.759652	-190.811069	123.303741	63.061011	194.010873	354.954379	67.665403	200.295219	333.789774	51.259903	282.550177	147.200140	63.852721	-129.749625	388.588738	64.238312	-158.103376	354.551505	50.203549	-235.549596	333.568110	1392.086490	32.146860	234.742294	1440.849012	225.671625	270.666670	1442.970040	-171.246711	232.766644	102.165476	-142.433874	203.989794	107.361328	201.584004	308.503474	938.899217	-54.865443	315.608073	932.248088	115.256481	248.253424	522.460792	-92.047905	239.212618	516.282159	162.858333	
36	0.350000	162.860949	1006.037836	28.334087	368.704478	1016.986667	149.223944	358.840260	1026.200893	-86.453800	235.971767	519.140094	217.141188	242.387913	513.334969	108.515371	382.719027	740.244753	168.373121	335.271970	636.435206	138.650910	320.773013	648.367014	200.092679	252.175497	535.226805	-147.262883	244.340615	509.694845	-36.843446	358.883110	781.565772	-139.601345	352.815338	666.190595	-112.586316	300.588892	670.888621	-160.105259	187.929647	106.889946	244.132198	220.054747	107.832099	159.033345	266.167503	374.568704	219.982072	255.844628	258.952863	187.243909	214.286765	262.804792	253.890989	212.885264	90.984851	-182.783644	252.647062	113.345053	-102.085272	276.486604	357.215365	-163.613483	271.517720	245.794439	-129.541185	225.026934	250.758076	-190.812263	123.305951	63.058786	194.010304	354.956171	67.666172	200.294711	333.789686	51.260777	282.548918	147.200028	63.852280	-129.749845	388.583024	64.228972	-158.109031	354.552042	50.203669	-235.549102	333.608199	1392.082892	32.129515	234.787833	1440.836328	225.656752	270.691326	1442.965906	-171.264736	232.766163	102.164952	-142.434458	203.992197	107.361023	201.582771	308.525849	938.894160	-54.876631	315.646311	932.242893	115.246792	248.258056	522.460825	-92.053164	239.179840	516.237532	162.828280	
37	0.360000	162.883700	1006.036295	28.336717	368.743188	1016.982484	149.209280	358.857153	1026.196958	-86.470422	235.989056	519.139782	217.131210	242.302615	513.238602	108.459514	382.741787	740.242940	168.358806	335.287737	636.432760	138.637376	320.797992	648.367171	200.079950	252.182188	535.226873	-147.268173	244.350360	509.694957	-36.849849	358.885347	781.564186	-139.622185	352.822380	666.189582	-112.606332	300.590600	670.887296	-160.114198	187.932504	106.891155	244.130285	220.056943	107.830238	159.033270	266.175006	374.567100	219.976800	255.847422	258.949076	187.237506	214.290093	262.804841	253.882776	212.885620	90.983405	-182.783414	252.647143	113.345201	-102.086008	276.490037	357.212534	-163.616610	271.519405	245.793441	-129.542735	225.027345	250.756182	-190.813548	123.308298	63.056187	194.010657	354.956830	67.666653	200.294669	333.789730	51.261815	282.547427	147.200129	63.851702	-129.750115	388.581621	64.226265	-158.110747	354.552955	50.204166	-235.548467	333.644500	1392.080133	32.110656	234.832463	1440.826501	225.640885	270.710814	1442.962920	-171.283432	232.766381	102.164303	-142.434711	203.994723	107.360696	201.581777	308.543421	938.889975	-54.888097	315.679625	932.238536	115.236562	248.266274	522.460915	-92.059011	239.145835	516.189192	162.795362	
38	0.370000	162.901606	1006.034414	28.340364	368.776234	1016.979404	149.194236	358.868695	1026.193895	-86.487032	236.007850	519.139131	217.122208	242.221537	513.143228	108.401322	382.763089	740.242934	168.344436	335.304862	636.432063	138.624624	320.823255	648.368717	200.068211	252.192318	535.227065	-147.273191	244.364896	509.695087	-36.857092	358.887593	781.565105	-139.643744	352.830904	666.190190	-112.628152	300.592939	670.887426	-160.123494	187.935198	106.891881	244.128561	220.059432	107.828908	159.033219	266.184689	374.564476	219.972019	255.850850	258.944469	187.231885	214.293634	262.803365	253.874844	212.886869	90.981656	-182.782181	252.647883	113.345395	-102.086689	276.496282	357.208744	-163.619603	271.522467	245.791539	-129.543906	225.029261	250.753967	-190.814705	123.310466	63.053522	194.011673	354.956178	67.666650	200.294955	333.789876	51.262917	282.545818	147.200568	63.850967	-129.750241	388.583639	64.228950	-158.109302	354.554088	50.205021	-235.547751	333.676224	1392.077903	32.090169	234.875751	1440.820032	225.624188	270.724316	1442.960510	-171.302886	232.767376	102.163525	-142.434435	203.997315	107.360394	201.580890	308.556287	938.886494	-54.899642	315.708007	932.235047	115.225995	248.278607	522.461076	-92.065142	239.114693	516.141179	162.761765	
39	0.380000	162.915001	1006.031966	28.344778	368.803705	1016.977392	149.179111	358.875070	1026.191474	-86.503426	236.027713	519.138265	217.113967	242.151550	513.055716	108.344807	382.783109	740.244095	168.330283	335.323246	636.432791	138.612707	320.848079	648.371156	200.057541	252.206148	535.227276	-147.277668	244.384331	509.695335	-36.864756	358.890594	781.568388	-139.665253	352.841507	666.192410	-112.650606	300.596736	670.888838	-160.132551	187.937617	106.892080	244.127033	220.062125	107.828206	159.032896	266.196158	374.560901	219.967501	255.854864	258.939228	187.227031	214.297433	262.800777	253.867375	212.888987	90.979682	-182.779921	252.649247	113.345505	-102.087073	276.505475	357.203966	-163.622168	271.527038	245.788675	-129.544552	225.032850	250.751399	-190.815465	123.312152	63.051118	194.012986	354.954248	67.666085	200.295376	333.790088	51.263992	282.544225	147.201428	63.850075	-129.750066	388.587825	64.235241	-158.105803	354.555251	50.206171	-235.547033	333.702623	1392.075811	32.068120	234.917118	1440.817139	225.606929	270.731078	1442.957919	-171.323106	232.769117	102.162594	-142.433497	203.999871	107.360143	201.579964	308.564716	938.883456	-54.910999	315.731659	932.232311	115.215422	248.295239	522.461306	-92.071212	239.089632	516.096990	162.729387	
